<?xml version="1.0" encoding="utf-8"?>
<!-- Generator: Adobe Illustrator 21.1.0, SVG Export Plug-In . SVG Version: 6.00 Build 0)  -->
<svg version="1.1" id="Ebene_1" xmlns="http://www.w3.org/2000/svg" xmlns:xlink="http://www.w3.org/1999/xlink" x="0px" y="0px"
	 viewBox="0 0 492.1 70" style="enable-background:new 0 0 492.1 70;" xml:space="preserve">
<style type="text/css">
	.st0{fill:#454E7E;}
	.st1{fill:#82888F;}
</style>
<title>2017_06_21_prime research_logo_CMYK_col</title>
<g>
	<g>
		<path class="st0" d="M17,43.6H0v-1.7l1.2-0.1c1.5,0,2.6-0.5,3.1-1.2c0.4-0.5,0.8-2,0.8-4.5V17c0-1.5-0.1-3.1-0.3-3.7
			c-0.2-0.5-0.5-1-1-1.3c-0.6-0.4-1.4-0.6-2.6-0.6H0V9.6h12.8c3.7,0,8,0.3,9.6,1.1c1.7,0.7,3,1.8,3.9,3.1c1,1.5,1.6,3.3,1.6,5.3
			c0,2.9-0.9,5.2-2.7,7c-1.8,1.7-4.3,3-7.3,3c-1.3,0-3.5-0.1-5.8-0.7v8.3c0,1.5,0.1,2.6,0.3,3.2c0.2,0.5,0.5,1,1,1.3
			c0.6,0.4,1.4,0.7,2.5,0.7h1.2L17,43.6z M14.7,12.5c-0.8,0-1.5-0.1-2.3,0C12,12.6,12,12.9,12,12.9v12.4c0,0,0,0.4,0.6,0.6
			c0.8,0.3,1.8,0.4,2.7,0.4c1.3,0,2.4-0.4,3.3-1.2c1.5-1.3,2.2-3.2,2.2-5.7c0-2.1-0.6-3.8-1.7-5C18.1,13.1,16.6,12.5,14.7,12.5z"/>
		<path class="st0" d="M64.1,43.6H54L42.4,28.3c-0.6,0-0.5,0-0.8,0c-0.2,0-0.6,0-1,0v7.8c0,1.5,0.1,3.1,0.3,3.7c0.2,0.5,0.5,1,1,1.3
			c0.6,0.4,1.5,0.6,2.7,0.6h1v1.7H28.7v-1.7h1c1.6,0,2.6-0.4,3.2-1c0.6-0.7,0.8-2.6,0.8-4.6V17c0-1.5-0.1-3.1-0.3-3.7
			c-0.2-0.5-0.5-1-1-1.3c-0.6-0.4-1.5-0.6-2.7-0.6h-1V9.6h15.4c3,0,6,0.4,7.9,1c1.7,0.6,3,1.7,4,3.1s1.5,3.4,1.5,5.3
			c0,2.1-0.7,4-2.1,5.5c-1.3,1.4-3.7,2.5-5.9,3.1l7.3,9.4c0.8,1.1,1.6,2,2.2,2.6c0.6,0.6,1.2,1,1.8,1.4c0.5,0.3,0.9,0.5,1.3,0.5
			c0.3,0.1,0.9,0.1,2.3,0.2h-0.2v1.9H64.1z M40.5,13c0,0,0,0.1,0,0.3V26c0.1,0.1,0.3,0.2,1.3,0.2c2.3,0,4.1-0.5,5.6-1.5
			c1.7-1.2,2.5-2.8,2.5-5.1c0-2-0.6-4.2-1.9-5.4c-1.6-1.6-4-2.1-7.2-1.3C40.6,12.9,40.5,13,40.5,13z"/>
		<path class="st0" d="M83.1,43.6H66.2v-1.7h0.9c1.5,0,2.6-0.4,3.1-1c0.5-0.7,0.8-2.1,0.8-4.1V16.6c0-1.5-0.1-2.6-0.3-3.2
			c-0.2-0.5-0.5-1-1-1.3c-0.6-0.4-1.4-0.6-2.6-0.6h-0.9V9.6h16.9v1.8h-1.4c-1.5,0-2.5,0.4-3.1,1c-0.5,0.7-0.8,2.1-0.8,4.1v20.1
			c0,1.5,0.1,2.6,0.3,3.2c0.2,0.5,0.5,1,1,1.3c0.6,0.4,1.4,0.6,2.6,0.6h1.4V43.6z"/>
		<path class="st0" d="M105.9,43.6L94.5,15v21.6c0,1.5,0.1,2.6,0.3,3.2c0.2,0.5,0.5,1,1.1,1.3c0.6,0.4,1.6,0.6,2.8,0.6h1v1.7H85.9
			v-1.7h1c1.6,0,3.1-0.4,3.6-1c0.6-0.7,0.9-2.1,0.9-4.1V17c0-1.5-0.1-3.1-0.3-3.7c-0.2-0.5-0.5-1-1.1-1.3c-0.6-0.4-1.9-0.6-3.1-0.6
			h-1V9.6h13.2l9.7,24l9.6-24H132v1.8h-1.6c-1.7,0-2.8,0.4-3.3,1c-0.4,0.5-0.9,1.6-0.9,4.1v20.1c0,1.5,0.1,2.6,0.3,3.2
			c0.2,0.5,0.5,1,1.1,1.3c0.6,0.4,1.6,0.6,2.8,0.6h1.6v1.7h-17.5v-1.7h1c1.7,0,2.8-0.4,3.3-1c0.6-0.7,0.9-2.1,0.9-4.1V15l-11.5,28.5
			L105.9,43.6L105.9,43.6z"/>
		<path class="st0" d="M163,43.6h-28.2v-1.7h1c1.6,0,2.7-0.4,3.2-1c0.6-0.7,0.8-2.1,0.8-4.1V17c0-1.5-0.1-2.6-0.3-3.2
			c-0.2-0.5-0.5-1-1.1-1.3c-0.6-0.4-1.5-0.6-2.7-0.6h-1V9.6h27.6L163,18h-1.9c-0.3-2-1-3.4-2-4.2s-2.6-1.2-4.8-1.2l-7.8,0.1v12.2
			h6.3c2.6,0,3.5-0.6,3.9-1c0.6-0.5,1-1.8,1.1-3.5v-0.5h1.9v11.9h-1.9v-0.5c-0.1-2.2-0.6-3.1-1.1-3.5c-0.4-0.4-1.3-0.6-3.9-0.6h-6.3
			V39c0,1.4,0.3,1.7,0.3,1.7c0.1,0,0.4,0.3,2.1,0.3h5.4c1.7,0,3.1-0.1,4-0.4c0.9-0.3,1.8-0.8,2.6-1.5c1-0.9,1.9-2.4,2.7-4.5l0.3-0.8
			h2.5L163,43.6z"/>
		<g>
			<polygon class="st0" points="223.8,34.4 220.4,0.7 220.3,0 219.7,0.1 185.9,3.4 185.3,3.5 185.3,4.2 185.7,8.1 187.1,8.1 
				186.8,4.7 219.1,1.5 222.3,33.8 214,34.7 214,36.1 223.1,35.1 223.8,35.1 			"/>
			<g>
				<polygon class="st1" points="178,10.5 211.8,9.6 211.8,12.1 178,11.2 				"/>
				<polygon class="st1" points="178,14.5 211.8,13.5 211.8,16 178,15.1 				"/>
				<polygon class="st1" points="178,18.4 211.8,17.5 211.8,20 178,19.1 				"/>
				<polygon class="st1" points="178,22.3 211.8,21.4 211.8,23.9 178,23 				"/>
				<polygon class="st1" points="178,26.2 211.8,25.3 211.8,27.8 178,26.9 				"/>
				<polygon class="st1" points="178,30.2 211.8,29.3 211.8,31.8 178,30.9 				"/>
				<polygon class="st1" points="178,34.1 211.8,33.2 211.8,35.7 178,34.8 				"/>
				<polygon class="st1" points="178,38 211.8,37.1 211.8,39.6 178,38.7 				"/>
				<polygon class="st1" points="178,42 211.8,41.1 211.8,43.6 178,42.7 				"/>
			</g>
		</g>
		<path class="st1" d="M254.5,26.9l7.5,10.2c0.8,1.2,1.6,2.1,2.2,2.7c0.6,0.6,1.2,1.1,1.9,1.5c0.5,0.3,1,0.5,1.4,0.6
			s1.2,0.2,2.4,0.3v1.3h-9.4L249,27.8c-0.7,0-1.2,0-1.6,0c-0.3,0-0.8,0-1.5,0v8.5c0,1.6,0.1,2.8,0.3,3.4c0.2,0.7,0.6,1.2,1.2,1.6
			c0.7,0.5,1.6,0.7,2.9,0.7h0.5v1.3h-14.9V42h0.5c1.7,0,2.9-0.5,3.5-1.3s0.9-2.3,0.9-4.5V16.7c0-1.6-0.1-2.8-0.3-3.4
			c-0.2-0.7-0.6-1.2-1.2-1.6c-0.7-0.5-1.6-0.7-2.9-0.7h-0.5V9.6H250c2.9,0,5.3,0.3,7.1,1c1.6,0.6,2.8,1.6,3.7,3s1.4,3,1.4,4.8
			c0,2.1-0.7,3.9-2,5.4S256.8,26.3,254.5,26.9z M245.8,12.8v12.5c0,0.3,0.1,0.5,0.3,0.5c0.2,0.1,0.7,0.1,1.5,0.1
			c2.4,0,4.3-0.5,5.8-1.6c1.9-1.3,2.8-3.2,2.8-5.7c0-2.2-0.7-4-2-5.3c-1.2-1.2-2.8-1.9-4.9-1.9c-0.8,0-1.8,0.1-2.7,0.3
			c-0.4,0.1-0.6,0.2-0.7,0.3S245.8,12.5,245.8,12.8z"/>
		<path class="st1" d="M296.8,9.6l0.5,8.2H296c-0.3-2.2-1-3.7-2.1-4.7s-2.8-1.4-5-1.4h-7.8v12.8h6.7c2.1,0,3.6-0.3,4.3-1
			c0.7-0.7,1.1-2,1.2-4h1.3v12h-1.3c-0.1-2-0.5-3.3-1.2-3.9s-2.1-1-4.3-1h-6.7v12.2c0,1.1,0.2,1.9,0.5,2.1c0.3,0.3,1.1,0.4,2.4,0.4
			h5.7c1.7,0,3.1-0.2,4.1-0.5s1.9-0.8,2.7-1.6c1-1,2-2.6,2.8-4.8l1.2,0.3l-2.7,8.7h-26.6v-1.3h0.5c1.7,0,2.9-0.5,3.5-1.3
			s0.9-2.3,0.9-4.5V16.7c0-1.6-0.1-2.8-0.3-3.4c-0.2-0.7-0.6-1.2-1.2-1.6c-0.7-0.5-1.6-0.7-2.9-0.7h-0.5V9.6H296.8z"/>
		<path class="st1" d="M323.4,8.7l-0.1,11.2H322c-0.1-1.9-0.6-3.6-1.3-4.9c-0.6-1.1-1.5-2-2.6-2.6s-2.2-1-3.5-1c-1.6,0-3,0.5-4,1.4
			c-1.1,1-1.6,2.2-1.6,3.7c0,1.4,0.6,2.6,1.7,3.6c0.8,0.7,2.5,1.8,5,3.3c3.6,2.1,5.9,3.7,7.1,4.8c0.7,0.8,1.3,1.7,1.8,2.8
			c0.4,1.1,0.6,2.3,0.6,3.4c0,3-1.2,5.5-3.6,7.3c-1.9,1.5-4.1,2.2-6.8,2.2c-1.6,0-3.7-0.4-6.4-1.3c-0.7-0.2-1.3-0.3-1.6-0.3
			c-0.9,0-1.5,0.5-1.7,1.5h-1.3l0.2-11.1h1.3c0.1,1.9,0.4,3.4,1.1,4.7s1.7,2.3,3,3s2.8,1.1,4.3,1.1c2,0,3.5-0.6,4.7-1.7
			c1.2-1.1,1.8-2.4,1.8-4.1c0-1.7-0.7-3.2-2.1-4.4c-0.4-0.4-2.2-1.5-5.2-3.3c-2.5-1.5-4.1-2.5-4.8-3c-0.7-0.5-1.3-1.1-1.9-1.8
			c-1.2-1.5-1.9-3.2-1.9-5.2c0-2.8,1.1-5.2,3.4-7c1.7-1.4,3.8-2.1,6.2-2.1c0.8,0,1.5,0.1,2,0.2c0.6,0.1,1.7,0.4,3.4,0.9
			c0.5,0.1,0.9,0.2,1.2,0.2c0.9,0,1.4-0.5,1.6-1.6L323.4,8.7L323.4,8.7z"/>
		<path class="st1" d="M353.9,9.6l0.5,8.2h-1.3c-0.3-2.2-1-3.7-2-4.7c-1.1-0.9-2.8-1.4-5-1.4h-7.8v12.8h6.7c2.1,0,3.6-0.3,4.3-1
			c0.7-0.7,1.1-2,1.2-4h1.3v12h-1.3c-0.1-2-0.5-3.3-1.2-3.9s-2.1-1-4.3-1h-6.7v12.2c0,1.1,0.2,1.9,0.5,2.1c0.3,0.3,1.1,0.4,2.4,0.4
			h5.7c1.7,0,3.1-0.2,4.1-0.5s1.9-0.8,2.7-1.6c1-1,2-2.6,2.8-4.8l1.2,0.3l-2.7,8.7h-26.6v-1.3h0.5c1.7,0,2.9-0.5,3.5-1.3
			s0.9-2.3,0.9-4.5V16.7c0-1.6-0.1-2.8-0.3-3.4c-0.2-0.7-0.6-1.2-1.2-1.6c-0.7-0.5-1.6-0.7-2.9-0.7h-0.5V9.6H353.9z"/>
		<path class="st1" d="M374.8,8.5l12.4,29c0.8,1.9,1.5,3.1,2.3,3.7c0.7,0.6,1.8,0.9,3.3,1v1.3h-14v-1.3h0.4c1.3,0,2.2-0.2,2.6-0.4
			s0.7-0.7,0.7-1.4c0-0.4-0.2-1.1-0.6-2l-2.5-5.9h-12.1l-2.2,5.3c-0.5,1.2-0.8,2.1-0.8,2.7c0,1.1,0.6,1.6,1.9,1.7
			c1,0.1,1.6,0.1,1.8,0.1v1.3h-11.3v-1.3c1.6,0,2.9-0.4,3.8-1.1c0.9-0.7,1.7-2,2.5-4L374.8,8.5z M373.3,17.9L368,30.6h10.6
			L373.3,17.9z"/>
		<path class="st1" d="M412.6,26.9l7.5,10.2c0.8,1.2,1.6,2.1,2.2,2.7c0.6,0.6,1.2,1.1,1.9,1.5c0.5,0.3,1,0.5,1.4,0.6
			s1.2,0.2,2.4,0.3v1.3h-9.4l-11.5-15.7c-0.7,0-1.2,0-1.6,0c-0.3,0-0.8,0-1.5,0v8.5c0,1.6,0.1,2.8,0.3,3.4c0.2,0.7,0.6,1.2,1.2,1.6
			c0.7,0.5,1.6,0.7,2.9,0.7h0.5v1.3H394V42h0.5c1.7,0,2.9-0.5,3.5-1.3s0.9-2.3,0.9-4.5V16.7c0-1.6-0.1-2.8-0.3-3.4
			c-0.2-0.7-0.6-1.2-1.2-1.6c-0.7-0.5-1.6-0.7-2.9-0.7H394V9.6h14c2.9,0,5.3,0.3,7.1,1c1.6,0.6,2.8,1.6,3.7,3s1.4,3,1.4,4.8
			c0,2.1-0.7,3.9-2,5.4C416.9,25.2,415,26.3,412.6,26.9z M404,12.8v12.5c0,0.3,0.1,0.5,0.3,0.5c0.2,0.1,0.7,0.1,1.5,0.1
			c2.4,0,4.3-0.5,5.8-1.6c1.9-1.3,2.8-3.2,2.8-5.7c0-2.2-0.7-4-2-5.3c-1.2-1.2-2.8-1.9-4.9-1.9c-0.8,0-1.8,0.1-2.7,0.3
			c-0.4,0.1-0.6,0.2-0.7,0.3C404,12.2,404,12.5,404,12.8z"/>
		<path class="st1" d="M453.8,9.2l-0.1,11.2h-1.3c-0.1-1.7-0.3-3.4-1.2-5c-1.8-2.9-4.4-4.3-7.8-4.3c-3.3,0-6,1.4-8.2,4.1
			c-2.3,2.9-3.4,6.5-3.4,11c0,2.4,0.3,4.6,1,6.7s1.6,3.8,2.8,5c2.1,2.3,4.8,3.5,8,3.5c4.6,0,8.1-2.3,10.4-6.8l1.4,0.9
			c-1.1,2.1-2.4,3.9-4,5.2c-2.6,2.2-5.7,3.3-9.3,3.3c-3.4,0-6.4-1-9.1-2.9c-2.2-1.6-3.9-3.6-5.1-6s-1.8-5.1-1.8-8
			c0-2.2,0.3-4.4,1-6.5s1.6-3.9,2.8-5.4c1.7-2.1,3.9-3.8,6.6-4.9c1.9-0.8,3.9-1.2,5.9-1.2c2.2,0,4.6,0.5,7.1,1.6
			c0.8,0.3,1.3,0.5,1.7,0.5c0.4,0,0.8-0.1,1-0.4c0.2-0.3,0.4-0.8,0.5-1.6H453.8z"/>
		<path class="st1" d="M466.8,25.3h15.3v-8.6c0-1.6-0.1-2.8-0.3-3.4c-0.2-0.7-0.6-1.2-1.2-1.6c-0.7-0.5-1.6-0.7-2.9-0.7h-0.5V9.6
			h14.9v1.3h-0.5c-1.7,0-2.9,0.5-3.5,1.3s-0.9,2.3-0.9,4.5v19.7c0,1.6,0.1,2.8,0.3,3.4c0.2,0.7,0.6,1.2,1.2,1.6
			c0.7,0.5,1.6,0.7,2.9,0.7h0.5v1.3h-14.9v-1.3h0.5c1.7,0,2.9-0.5,3.5-1.3s0.9-2.3,0.9-4.5V27h-15.3v9.3c0,1.6,0.1,2.8,0.3,3.4
			c0.2,0.7,0.6,1.2,1.2,1.6c0.7,0.5,1.6,0.7,2.9,0.7h0.5v1.3h-14.9V42h0.5c1.7,0,2.9-0.5,3.5-1.3s0.9-2.3,0.9-4.5V16.7
			c0-1.6-0.1-2.8-0.3-3.4c-0.2-0.7-0.6-1.2-1.2-1.6c-0.7-0.5-1.6-0.7-2.9-0.7h-0.5V9.6h14.9v1.3h-0.5c-1.7,0-2.9,0.5-3.5,1.3
			s-0.9,2.3-0.9,4.5V25.3z"/>
	</g>
	<g>
		<path class="st0" d="M7.9,66H6.5v-1.3l0,0c-0.6,1-1.5,1.5-2.7,1.5c-0.9,0-1.6-0.2-2-0.7c-0.5-0.4-0.7-1-0.7-1.8
			c0-1.6,1-2.5,2.9-2.8l2.6-0.4c0-1.4-0.6-2.2-1.8-2.2c-1.1,0-2,0.3-2.9,1v-1.4c0.9-0.5,1.9-0.8,3-0.8C7,57.1,8,58.2,8,60.3L7.9,66
			L7.9,66z M6.5,61.7L4.3,62c-0.6,0.1-1.1,0.2-1.5,0.5c-0.3,0.2-0.5,0.6-0.5,1.2c0,0.4,0.2,0.8,0.5,1C3.1,65,3.5,65.1,4,65.1
			c0.7,0,1.3-0.2,1.7-0.7c0.5-0.5,0.7-1.1,0.7-1.8v-0.9H6.5z"/>
		<path class="st0" d="M24.1,65.5c-0.9,0.5-2,0.7-3.4,0.7c-1.7,0-3.1-0.5-4.2-1.6c-1-1.1-1.6-2.5-1.6-4.3c0-1.9,0.6-3.4,1.8-4.6
			c1.2-1.2,2.7-1.8,4.5-1.8c1.2,0,2.1,0.2,2.9,0.5v1.5c-0.9-0.5-1.8-0.7-2.9-0.7c-1.4,0-2.5,0.5-3.4,1.4s-1.3,2.1-1.3,3.7
			c0,1.5,0.4,2.6,1.2,3.5c0.8,0.9,1.9,1.3,3.2,1.3c1.2,0,2.3-0.3,3.2-0.8C24.1,64.3,24.1,65.5,24.1,65.5z"/>
		<path class="st0" d="M27.3,55.3c-0.3,0-0.5-0.1-0.6-0.2s-0.3-0.4-0.3-0.6s0.1-0.5,0.3-0.6s0.4-0.3,0.6-0.3c0.3,0,0.5,0.1,0.7,0.3
			s0.3,0.4,0.3,0.6c0,0.2-0.1,0.5-0.3,0.6C27.8,55.3,27.5,55.3,27.3,55.3z M28,66h-1.4v-8.5H28V66z"/>
		<path class="st0" d="M30.4,65.7v-1.5c0.8,0.5,1.6,0.8,2.5,0.8c1.2,0,1.8-0.4,1.8-1.2c0-0.2-0.1-0.4-0.2-0.6
			c-0.1-0.2-0.2-0.3-0.4-0.4c-0.2-0.1-0.4-0.2-0.6-0.3c-0.2-0.1-0.5-0.2-0.8-0.3c-0.4-0.1-0.7-0.3-1-0.5s-0.5-0.3-0.7-0.5
			s-0.3-0.4-0.4-0.7c-0.1-0.2-0.1-0.5-0.1-0.9s0.1-0.8,0.3-1.1c0.2-0.3,0.4-0.6,0.8-0.8c0.3-0.2,0.7-0.4,1.1-0.5
			c0.4-0.1,0.8-0.2,1.2-0.2c0.8,0,1.4,0.1,2,0.4v1.4c-0.6-0.4-1.4-0.6-2.2-0.6c-0.3,0-0.5,0-0.7,0.1s-0.4,0.1-0.5,0.2
			c-0.2,0.1-0.3,0.2-0.4,0.4C32,59,32,59.2,32,59.4s0,0.4,0.1,0.6c0.1,0.2,0.2,0.3,0.4,0.4c0.2,0.1,0.4,0.2,0.6,0.3
			c0.2,0.1,0.5,0.2,0.8,0.3c0.4,0.1,0.7,0.3,1,0.4s0.6,0.3,0.8,0.5s0.4,0.4,0.5,0.7c0.1,0.2,0.2,0.5,0.2,0.9s-0.1,0.8-0.3,1.1
			s-0.4,0.6-0.8,0.8c-0.3,0.2-0.7,0.4-1.1,0.5S33.3,66,32.9,66C31.9,66.2,31.1,66,30.4,65.7z"/>
		<path class="st0" d="M39.2,55.3c-0.3,0-0.5-0.1-0.6-0.2s-0.3-0.4-0.3-0.6s0.1-0.5,0.3-0.6s0.4-0.3,0.6-0.3c0.3,0,0.5,0.1,0.7,0.3
			s0.3,0.4,0.3,0.6c0,0.2-0.1,0.5-0.3,0.6C39.7,55.3,39.5,55.3,39.2,55.3z M39.9,66h-1.4v-8.5h1.4V66z"/>
		<path class="st0" d="M46.6,66.2c-1.3,0-2.3-0.4-3.1-1.2c-0.8-0.8-1.2-1.8-1.2-3.2s0.4-2.5,1.2-3.3s1.9-1.2,3.3-1.2
			c1.3,0,2.3,0.4,3.1,1.2c0.7,0.8,1.1,1.9,1.1,3.2c0,1.4-0.4,2.4-1.2,3.3S47.9,66.2,46.6,66.2z M46.7,58.5c-0.9,0-1.6,0.3-2.1,0.9
			c-0.5,0.6-0.8,1.4-0.8,2.5c0,1,0.3,1.8,0.8,2.4c0.5,0.6,1.2,0.9,2.1,0.9c0.9,0,1.6-0.3,2.1-0.9s0.7-1.4,0.7-2.4
			c0-1.1-0.2-1.9-0.7-2.5S47.6,58.5,46.7,58.5z"/>
		<path class="st0" d="M60.6,66h-1.4v-4.8c0-1.8-0.7-2.7-2-2.7c-0.7,0-1.3,0.3-1.7,0.8c-0.5,0.5-0.7,1.2-0.7,1.9V66h-1.4v-8.5h1.4
			v1.4l0,0c0.7-1.1,1.6-1.6,2.9-1.6c1,0,1.7,0.3,2.2,0.9s0.8,1.5,0.8,2.6L60.6,66L60.6,66z"/>
		<path class="st0" d="M74.2,65.6c-0.7,0.4-1.5,0.6-2.4,0.6c-1.2,0-2.3-0.4-3-1.2c-0.8-0.8-1.1-1.8-1.1-3.1c0-1.4,0.4-2.5,1.2-3.4
			c0.8-0.8,1.9-1.3,3.3-1.3c0.8,0,1.4,0.1,2,0.4V59c-0.6-0.4-1.3-0.7-2.1-0.7c-0.9,0-1.6,0.3-2.2,0.9c-0.6,0.6-0.9,1.4-0.9,2.5
			c0,1,0.3,1.8,0.8,2.4c0.5,0.6,1.3,0.9,2.2,0.9c0.8,0,1.5-0.2,2.2-0.7V65.6z"/>
		<path class="st0" d="M80.2,66.2c-1.3,0-2.3-0.4-3.1-1.2c-0.8-0.8-1.2-1.8-1.2-3.2s0.4-2.5,1.2-3.3c0.8-0.8,1.9-1.2,3.3-1.2
			c1.3,0,2.3,0.4,3.1,1.2c0.7,0.8,1.1,1.9,1.1,3.2c0,1.4-0.4,2.4-1.2,3.3S81.5,66.2,80.2,66.2z M80.3,58.5c-0.9,0-1.6,0.3-2.1,0.9
			c-0.5,0.6-0.8,1.4-0.8,2.5c0,1,0.3,1.8,0.8,2.4c0.5,0.6,1.2,0.9,2.1,0.9s1.6-0.3,2.1-0.9s0.7-1.4,0.7-2.4c0-1.1-0.2-1.9-0.7-2.5
			S81.2,58.5,80.3,58.5z"/>
		<path class="st0" d="M99.3,66h-1.4v-4.9c0-0.9-0.1-1.6-0.4-2s-0.8-0.6-1.5-0.6c-0.6,0-1.1,0.3-1.5,0.8s-0.6,1.2-0.6,1.9V66h-1.4
			v-5c0-1.7-0.7-2.5-2-2.5c-0.6,0-1.1,0.3-1.5,0.8s-0.6,1.2-0.6,2V66H87v-8.5h1.4v1.3l0,0c0.6-1,1.5-1.5,2.7-1.5
			c0.6,0,1.1,0.2,1.6,0.5c0.4,0.3,0.7,0.7,0.9,1.3c0.6-1.2,1.6-1.8,2.9-1.8c1.9,0,2.9,1.2,2.9,3.5L99.3,66L99.3,66z"/>
		<path class="st0" d="M103.6,64.8L103.6,64.8v5.1h-1.4V57.5h1.4V59l0,0c0.7-1.1,1.7-1.7,3-1.7c1.1,0,2,0.4,2.6,1.1
			c0.6,0.8,0.9,1.8,0.9,3.1c0,1.4-0.4,2.6-1.1,3.4c-0.7,0.9-1.7,1.3-2.9,1.3C105.1,66.2,104.2,65.7,103.6,64.8z M103.5,61.4v1.2
			c0,0.7,0.2,1.3,0.7,1.8s1.1,0.7,1.8,0.7c0.8,0,1.5-0.3,2-0.9s0.7-1.5,0.7-2.6c0-0.9-0.2-1.7-0.7-2.2s-1.1-0.8-1.8-0.8
			c-0.8,0-1.5,0.3-2,0.8C103.8,59.8,103.5,60.5,103.5,61.4z"/>
		<path class="st0" d="M118.8,66h-1.4v-1.3l0,0c-0.6,1-1.5,1.5-2.7,1.5c-0.9,0-1.6-0.2-2-0.7c-0.5-0.4-0.7-1-0.7-1.8
			c0-1.6,1-2.5,2.9-2.8l2.6-0.4c0-1.4-0.6-2.2-1.8-2.2c-1.1,0-2,0.3-2.9,1v-1.4c0.9-0.5,1.9-0.8,3-0.8c2.1,0,3.1,1.1,3.1,3.2
			L118.8,66L118.8,66z M117.4,61.7l-2.1,0.3c-0.6,0.1-1.1,0.2-1.5,0.5c-0.3,0.2-0.5,0.6-0.5,1.2c0,0.4,0.2,0.8,0.5,1
			c0.3,0.3,0.7,0.4,1.2,0.4c0.7,0,1.3-0.2,1.7-0.7c0.5-0.5,0.7-1.1,0.7-1.8C117.4,62.6,117.4,61.7,117.4,61.7z"/>
		<path class="st0" d="M128.9,66h-1.4v-4.8c0-1.8-0.7-2.7-2-2.7c-0.7,0-1.3,0.3-1.7,0.8s-0.7,1.2-0.7,1.9V66h-1.4v-8.5h1.4v1.4l0,0
			c0.7-1.1,1.6-1.6,2.9-1.6c1,0,1.7,0.3,2.2,0.9c0.5,0.6,0.8,1.5,0.8,2.6V66H128.9z"/>
		<path class="st0" d="M138.6,57.5l-4,9.9c-0.7,1.8-1.7,2.6-3,2.6c-0.4,0-0.7,0-0.9-0.1v-1.2c0.3,0.1,0.6,0.1,0.8,0.1
			c0.7,0,1.2-0.4,1.6-1.2l0.7-1.6l-3.4-8.5h1.6l2.4,6.5c0,0.1,0.1,0.3,0.2,0.6h0.1c0-0.1,0.1-0.3,0.2-0.6l2.5-6.6L138.6,57.5
			L138.6,57.5z"/>
	</g>
</g>
</svg>
