<?xml version="1.0" encoding="utf-8"?>
<!-- Generator: Adobe Illustrator 22.0.1, SVG Export Plug-In . SVG Version: 6.00 Build 0)  -->
<svg version="1.1" id="Ebene_1" xmlns="http://www.w3.org/2000/svg" xmlns:xlink="http://www.w3.org/1999/xlink" x="0px" y="0px"
	 viewBox="0 0 433.7 93.5" style="enable-background:new 0 0 433.7 93.5;" xml:space="preserve">
<style type="text/css">
	.st0{fill:#143273;}
	.st1{fill:#808991;}
	.st2{fill-rule:evenodd;clip-rule:evenodd;fill:none;}
</style>
<g>
	<g>
		<path class="st0" d="M31.3,68.8h-1.1v-1.1h0c-0.5,0.8-1.2,1.3-2.1,1.3c-0.7,0-1.2-0.2-1.6-0.6c-0.4-0.4-0.6-0.9-0.6-1.5
			c0-1.3,0.8-2.1,2.3-2.3l2.1-0.3c0-1.2-0.5-1.8-1.4-1.8c-0.8,0-1.6,0.3-2.3,0.9v-1.1c0.7-0.4,1.5-0.7,2.4-0.7
			c1.6,0,2.5,0.9,2.5,2.6V68.8z M30.2,65.2l-1.7,0.2c-0.5,0.1-0.9,0.2-1.2,0.4c-0.3,0.2-0.4,0.5-0.4,1c0,0.3,0.1,0.6,0.4,0.8
			c0.2,0.2,0.6,0.3,1,0.3c0.6,0,1-0.2,1.4-0.6c0.4-0.4,0.5-0.9,0.5-1.5V65.2z"/>
		<path class="st0" d="M44.1,68.3c-0.7,0.4-1.6,0.6-2.7,0.6c-1.4,0-2.5-0.4-3.3-1.3c-0.8-0.9-1.3-2.1-1.3-3.5c0-1.6,0.5-2.8,1.4-3.8
			c0.9-1,2.1-1.5,3.6-1.5c0.9,0,1.7,0.1,2.3,0.4v1.2c-0.7-0.4-1.5-0.6-2.3-0.6c-1.1,0-2,0.4-2.7,1.1s-1,1.8-1,3c0,1.2,0.3,2.1,1,2.9
			c0.7,0.7,1.5,1.1,2.6,1.1c1,0,1.8-0.2,2.5-0.7V68.3z"/>
		<path class="st0" d="M46.5,60c-0.2,0-0.4-0.1-0.5-0.2c-0.1-0.1-0.2-0.3-0.2-0.5c0-0.2,0.1-0.4,0.2-0.5c0.1-0.1,0.3-0.2,0.5-0.2
			c0.2,0,0.4,0.1,0.5,0.2c0.1,0.1,0.2,0.3,0.2,0.5c0,0.2-0.1,0.4-0.2,0.5C46.8,59.9,46.7,60,46.5,60z M47,68.8h-1.1v-7H47V68.8z"/>
		<path class="st0" d="M48.8,68.5v-1.2c0.6,0.5,1.3,0.7,2,0.7c1,0,1.5-0.3,1.5-1c0-0.2,0-0.3-0.1-0.5c-0.1-0.1-0.2-0.2-0.3-0.3
			c-0.1-0.1-0.3-0.2-0.5-0.3c-0.2-0.1-0.4-0.2-0.6-0.3c-0.3-0.1-0.6-0.2-0.8-0.4c-0.2-0.1-0.4-0.3-0.6-0.4c-0.2-0.2-0.3-0.3-0.4-0.5
			c-0.1-0.2-0.1-0.4-0.1-0.7c0-0.3,0.1-0.6,0.2-0.9c0.2-0.3,0.3-0.5,0.6-0.6c0.3-0.2,0.5-0.3,0.9-0.4c0.3-0.1,0.7-0.1,1-0.1
			c0.6,0,1.1,0.1,1.6,0.3V63c-0.5-0.3-1.1-0.5-1.8-0.5c-0.2,0-0.4,0-0.6,0.1c-0.2,0-0.3,0.1-0.4,0.2c-0.1,0.1-0.2,0.2-0.3,0.3
			C50,63.2,50,63.4,50,63.5c0,0.2,0,0.3,0.1,0.5c0.1,0.1,0.2,0.2,0.3,0.3s0.3,0.2,0.5,0.3c0.2,0.1,0.4,0.2,0.6,0.3
			c0.3,0.1,0.6,0.2,0.8,0.4c0.2,0.1,0.5,0.3,0.6,0.4c0.2,0.2,0.3,0.3,0.4,0.5c0.1,0.2,0.1,0.4,0.1,0.7c0,0.3-0.1,0.6-0.2,0.9
			c-0.2,0.3-0.4,0.5-0.6,0.6c-0.3,0.2-0.5,0.3-0.9,0.4s-0.7,0.1-1,0.1C50,68.9,49.4,68.8,48.8,68.5z"/>
		<path class="st0" d="M55.8,60c-0.2,0-0.4-0.1-0.5-0.2c-0.1-0.1-0.2-0.3-0.2-0.5c0-0.2,0.1-0.4,0.2-0.5c0.1-0.1,0.3-0.2,0.5-0.2
			c0.2,0,0.4,0.1,0.5,0.2c0.1,0.1,0.2,0.3,0.2,0.5c0,0.2-0.1,0.4-0.2,0.5C56.1,59.9,56,60,55.8,60z M56.3,68.8h-1.1v-7h1.1V68.8z"/>
		<path class="st0" d="M61.5,68.9c-1,0-1.9-0.3-2.5-1c-0.6-0.7-0.9-1.5-0.9-2.6c0-1.2,0.3-2.1,1-2.8c0.6-0.7,1.5-1,2.6-1
			c1,0,1.9,0.3,2.4,1c0.6,0.6,0.9,1.5,0.9,2.7c0,1.1-0.3,2-0.9,2.7C63.4,68.6,62.5,68.9,61.5,68.9z M61.6,62.5
			c-0.7,0-1.3,0.2-1.7,0.7c-0.4,0.5-0.6,1.2-0.6,2c0,0.8,0.2,1.5,0.6,2c0.4,0.5,1,0.7,1.7,0.7c0.7,0,1.3-0.2,1.7-0.7
			c0.4-0.5,0.6-1.1,0.6-2c0-0.9-0.2-1.6-0.6-2S62.3,62.5,61.6,62.5z"/>
		<path class="st0" d="M72.5,68.8h-1.1v-4c0-1.5-0.5-2.2-1.6-2.2c-0.6,0-1,0.2-1.4,0.6c-0.4,0.4-0.5,1-0.5,1.6v4h-1.1v-7h1.1v1.2h0
			c0.5-0.9,1.3-1.3,2.3-1.3c0.8,0,1.3,0.2,1.8,0.7c0.4,0.5,0.6,1.2,0.6,2.1V68.8z"/>
		<path class="st0" d="M83.2,68.4c-0.5,0.3-1.2,0.5-1.9,0.5c-1,0-1.8-0.3-2.4-1c-0.6-0.6-0.9-1.5-0.9-2.5c0-1.2,0.3-2.1,1-2.8
			c0.7-0.7,1.5-1,2.6-1c0.6,0,1.2,0.1,1.6,0.3v1.1c-0.5-0.4-1.1-0.5-1.7-0.5c-0.7,0-1.3,0.3-1.8,0.8c-0.5,0.5-0.7,1.2-0.7,2
			c0,0.8,0.2,1.5,0.6,1.9s1,0.7,1.7,0.7c0.6,0,1.2-0.2,1.7-0.6V68.4z"/>
		<path class="st0" d="M87.8,68.9c-1,0-1.9-0.3-2.5-1c-0.6-0.7-0.9-1.5-0.9-2.6c0-1.2,0.3-2.1,1-2.8c0.6-0.7,1.5-1,2.6-1
			c1,0,1.9,0.3,2.4,1c0.6,0.6,0.9,1.5,0.9,2.7c0,1.1-0.3,2-0.9,2.7C89.7,68.6,88.9,68.9,87.8,68.9z M87.9,62.5
			c-0.7,0-1.3,0.2-1.7,0.7c-0.4,0.5-0.6,1.2-0.6,2c0,0.8,0.2,1.5,0.6,2c0.4,0.5,1,0.7,1.7,0.7c0.7,0,1.3-0.2,1.7-0.7
			c0.4-0.5,0.6-1.1,0.6-2c0-0.9-0.2-1.6-0.6-2C89.2,62.8,88.6,62.5,87.9,62.5z"/>
		<path class="st0" d="M103,68.8h-1.1v-4c0-0.8-0.1-1.3-0.4-1.7s-0.6-0.5-1.2-0.5c-0.5,0-0.9,0.2-1.2,0.7c-0.3,0.4-0.5,1-0.5,1.6v4
			h-1.1v-4.2c0-1.4-0.5-2.1-1.6-2.1c-0.5,0-0.9,0.2-1.2,0.6c-0.3,0.4-0.5,0.9-0.5,1.6v4h-1.1v-7h1.1v1.1h0c0.5-0.8,1.2-1.3,2.2-1.3
			c0.5,0,0.9,0.1,1.2,0.4c0.4,0.3,0.6,0.6,0.7,1c0.5-1,1.3-1.5,2.3-1.5c1.5,0,2.3,1,2.3,2.9V68.8z"/>
		<path class="st0" d="M106.2,67.7L106.2,67.7l0,4.2h-1.1V61.8h1.1V63h0c0.5-0.9,1.4-1.4,2.4-1.4c0.9,0,1.6,0.3,2.1,0.9
			c0.5,0.6,0.8,1.5,0.8,2.5c0,1.2-0.3,2.1-0.9,2.8c-0.6,0.7-1.3,1.1-2.3,1.1C107.4,68.9,106.7,68.5,106.2,67.7z M106.2,64.9v1
			c0,0.6,0.2,1.1,0.6,1.5c0.4,0.4,0.9,0.6,1.4,0.6c0.7,0,1.2-0.3,1.6-0.8c0.4-0.5,0.6-1.2,0.6-2.2c0-0.8-0.2-1.4-0.5-1.8
			s-0.8-0.7-1.5-0.7c-0.6,0-1.2,0.2-1.6,0.7C106.4,63.7,106.2,64.2,106.2,64.9z"/>
		<path class="st0" d="M118.3,68.8h-1.1v-1.1h0c-0.5,0.8-1.2,1.3-2.1,1.3c-0.7,0-1.2-0.2-1.6-0.6c-0.4-0.4-0.6-0.9-0.6-1.5
			c0-1.3,0.8-2.1,2.3-2.3l2.1-0.3c0-1.2-0.5-1.8-1.4-1.8c-0.8,0-1.6,0.3-2.3,0.9v-1.1c0.7-0.4,1.5-0.7,2.4-0.7
			c1.6,0,2.5,0.9,2.5,2.6V68.8z M117.1,65.2l-1.7,0.2c-0.5,0.1-0.9,0.2-1.2,0.4c-0.3,0.2-0.4,0.5-0.4,1c0,0.3,0.1,0.6,0.4,0.8
			c0.2,0.2,0.6,0.3,1,0.3c0.6,0,1-0.2,1.4-0.6c0.4-0.4,0.5-0.9,0.5-1.5V65.2z"/>
		<path class="st0" d="M126.2,68.8H125v-4c0-1.5-0.5-2.2-1.6-2.2c-0.6,0-1,0.2-1.4,0.6c-0.4,0.4-0.5,1-0.5,1.6v4h-1.1v-7h1.1v1.2h0
			c0.5-0.9,1.3-1.3,2.3-1.3c0.8,0,1.3,0.2,1.8,0.7c0.4,0.5,0.6,1.2,0.6,2.1V68.8z"/>
		<path class="st0" d="M133.8,61.8l-3.2,8.1c-0.6,1.5-1.4,2.2-2.4,2.2c-0.3,0-0.5,0-0.7-0.1v-1c0.2,0.1,0.5,0.1,0.7,0.1
			c0.6,0,1-0.3,1.3-1l0.6-1.3l-2.7-7h1.2l1.9,5.4c0,0.1,0.1,0.2,0.1,0.5h0c0-0.1,0.1-0.3,0.1-0.5l2-5.4H133.8z"/>
	</g>
	<g>
		<path class="st0" d="M38.5,51.4H25.2V50l0.9,0c1.2,0,2-0.4,2.4-0.9c0.3-0.4,0.6-1.5,0.6-3.5V30.7c0-1.2-0.1-2.4-0.2-2.9
			c-0.1-0.4-0.4-0.7-0.8-1c-0.5-0.3-1.1-0.5-2-0.5l-1,0v-1.4h9.9c2.9,0,6.2,0.3,7.5,0.8c1.3,0.6,2.3,1.4,3,2.4
			c0.8,1.2,1.2,2.6,1.2,4.1c0,2.2-0.7,4.1-2.1,5.4C43.3,39,41.4,40,39.1,40c-1,0-2.7-0.1-4.5-0.5V46c0,1.2,0.1,2,0.2,2.5
			c0.1,0.4,0.4,0.7,0.8,1c0.5,0.3,1.1,0.5,2,0.5l0.9,0L38.5,51.4z M36.6,27.2c-0.6,0-1.2-0.1-1.8,0c-0.3,0.1-0.3,0.2-0.3,0.2v9.7
			c0,0,0,0.3,0.5,0.4c0.7,0.2,1.4,0.3,2.1,0.3c1,0,1.9-0.3,2.6-0.9c1.2-1,1.7-2.5,1.7-4.4c0-1.6-0.4-2.9-1.3-3.9
			C39.3,27.7,38.1,27.2,36.6,27.2z"/>
		<path class="st0" d="M75.1,51.4h-7.9l-9-11.8c-0.5,0-0.4,0-0.6,0c-0.2,0-0.5,0-0.8,0v6.1c0,1.2,0.1,2.4,0.2,2.9
			c0.1,0.4,0.4,0.7,0.8,1c0.5,0.3,1.2,0.5,2.1,0.5l0.8,0v1.4H47.6V50l0.7,0c1.2,0,2.1-0.3,2.5-0.8c0.4-0.5,0.7-2,0.7-3.6V30.7
			c0-1.2-0.1-2.4-0.2-2.9c-0.1-0.4-0.4-0.7-0.8-1c-0.5-0.3-1.2-0.5-2.1-0.5l-0.8,0v-1.4h12c2.3,0,4.7,0.3,6.1,0.8
			c1.3,0.5,2.4,1.3,3.1,2.4c0.7,1.1,1.1,2.7,1.1,4.1c0,1.7-0.6,3.1-1.7,4.3c-1,1.1-2.9,1.9-4.6,2.4l5.7,7.3c0.7,0.9,1.2,1.5,1.7,2
			c0.5,0.4,0.9,0.8,1.4,1.1c0.4,0.2,0.7,0.4,1,0.4c0.2,0,0.7,0.1,1.8,0.2l-0.1,0V51.4z M56.7,27.5c0,0,0,0.1,0,0.2l0.1,9.9
			c0.1,0.1,0.3,0.1,1,0.1c1.8,0,3.2-0.4,4.4-1.2c1.4-0.9,2-2.2,2-3.9c0-1.5-0.5-3.3-1.5-4.2c-1.3-1.2-3.1-1.6-5.6-1
			C56.8,27.5,56.8,27.5,56.7,27.5z"/>
		<path class="st0" d="M89.9,51.4H76.7V50l0.7,0c1.2,0,2-0.3,2.4-0.8c0.4-0.5,0.6-1.6,0.6-3.2V30.3c0-1.2-0.1-2-0.2-2.5
			c-0.1-0.4-0.4-0.7-0.8-1c-0.5-0.3-1.1-0.5-2-0.5l-0.7,0v-1.4h13.1v1.4l-1.1,0c-1.2,0-2,0.3-2.4,0.8c-0.4,0.5-0.6,1.6-0.6,3.2V46
			c0,1.2,0.1,2,0.2,2.5c0.1,0.4,0.4,0.7,0.8,1c0.5,0.3,1.1,0.5,2,0.5l1.1,0V51.4z"/>
		<path class="st0" d="M107.7,51.4l-8.9-22.2V46c0,1.2,0.1,2,0.2,2.5c0.1,0.4,0.4,0.7,0.8,1c0.5,0.3,1.2,0.5,2.2,0.5l0.8,0v1.4H92.1
			V50l0.8,0c1.3,0,2.4-0.3,2.8-0.8c0.4-0.5,0.7-1.6,0.7-3.2V30.7c0-1.2-0.1-2.4-0.2-2.9c-0.1-0.4-0.4-0.7-0.8-1
			c-0.5-0.3-1.4-0.5-2.4-0.5l-0.8,0v-1.4h10.3l7.6,18.7l7.5-18.7h10.5v1.4l-1.2,0c-1.3,0-2.2,0.3-2.6,0.8c-0.3,0.4-0.7,1.2-0.7,3.2
			V46c0,1.2,0.1,2,0.2,2.5c0.1,0.4,0.4,0.7,0.8,1c0.5,0.3,1.2,0.5,2.2,0.5l1.3,0v1.4h-13.6V50l0.8,0c1.3,0,2.2-0.3,2.6-0.8
			c0.4-0.5,0.7-1.6,0.7-3.2l0-16.8l-9,22.2H107.7z"/>
		<path class="st0" d="M152.1,51.4h-21.9V50l0.8,0c1.3,0,2.1-0.3,2.5-0.8c0.4-0.5,0.7-1.6,0.7-3.2V30.7c0-1.2-0.1-2-0.2-2.5
			c-0.1-0.4-0.4-0.7-0.8-1c-0.5-0.3-1.2-0.5-2.1-0.5l-0.8,0v-1.7h21.5l0.5,6.5h-1.5c-0.2-1.6-0.7-2.6-1.5-3.3c-0.8-0.6-2-1-3.7-1
			l-6.1,0.1v9.5h4.9c2,0,2.7-0.5,3-0.8c0.5-0.4,0.8-1.4,0.8-2.7l0-0.4h1.5v9.3H148l0-0.4c-0.1-1.7-0.5-2.4-0.8-2.7
			c-0.3-0.3-1-0.5-3-0.5h-4.9v9.2c0,1.1,0.2,1.3,0.2,1.3c0,0,0.3,0.2,1.6,0.2h4.2c1.3,0,2.4-0.1,3.1-0.3c0.7-0.2,1.4-0.6,2-1.1
			c0.8-0.7,1.5-1.9,2.1-3.5l0.2-0.7h1.9L152.1,51.4z"/>
		<polygon class="st0" points="199.4,44.2 196.8,18 196.7,17.4 196.2,17.5 170,20.1 169.4,20.2 169.5,20.7 169.8,23.7 170.9,23.7 
			170.6,21.1 195.8,18.6 198.3,43.8 191.8,44.4 191.8,45.5 198.9,44.8 199.4,44.8 		"/>
		<g>
			<polygon class="st1" points="163.8,25.6 190.1,24.9 190.1,26.9 163.8,26.2 			"/>
			<polygon class="st1" points="163.8,28.7 190.1,28 190.1,29.9 163.8,29.2 			"/>
			<polygon class="st1" points="163.8,31.8 190.1,31.1 190.1,33 163.8,32.3 			"/>
			<polygon class="st1" points="163.8,34.8 190.1,34.1 190.1,36.1 163.8,35.3 			"/>
			<polygon class="st1" points="163.8,37.9 190.1,37.2 190.1,39.1 163.8,38.4 			"/>
			<polygon class="st1" points="163.8,40.9 190.1,40.2 190.1,42.2 163.8,41.5 			"/>
			<polygon class="st1" points="163.8,44 190.1,43.3 190.1,45.2 163.8,44.5 			"/>
			<polygon class="st1" points="163.8,47.1 190.1,46.4 190.1,48.3 163.8,47.6 			"/>
			<polygon class="st1" points="163.8,50.1 190.1,49.4 190.1,51.4 163.8,50.7 			"/>
		</g>
		<path class="st1" d="M223.3,38.4l5.8,8c0.7,0.9,1.2,1.6,1.7,2.1c0.5,0.5,1,0.9,1.5,1.2c0.4,0.2,0.8,0.4,1.1,0.5
			c0.3,0.1,0.9,0.1,1.9,0.2v1h-7.3l-9-12.2c-0.5,0-1,0-1.2,0c-0.3,0-0.7,0-1.2,0v6.6c0,1.3,0.1,2.2,0.2,2.7c0.2,0.5,0.5,0.9,1,1.3
			c0.5,0.4,1.3,0.6,2.3,0.6l0.4,0v1h-11.6v-1l0.4,0c1.3,0,2.3-0.4,2.7-1c0.5-0.6,0.7-1.8,0.7-3.5V30.5c0-1.3-0.1-2.2-0.2-2.7
			s-0.5-0.9-1-1.3c-0.5-0.4-1.3-0.6-2.3-0.6l-0.4,0v-1h10.9c2.3,0,4.1,0.3,5.5,0.8c1.2,0.5,2.2,1.3,2.9,2.3s1.1,2.3,1.1,3.7
			c0,1.6-0.5,3-1.5,4.2C226.6,37.1,225.1,37.9,223.3,38.4z M216.5,27.4v9.8c0,0.2,0.1,0.4,0.3,0.4c0.2,0.1,0.6,0.1,1.2,0.1
			c1.8,0,3.3-0.4,4.5-1.3c1.4-1,2.2-2.5,2.2-4.4c0-1.7-0.5-3.1-1.5-4.1c-0.9-1-2.2-1.5-3.8-1.5c-0.7,0-1.4,0.1-2.1,0.3
			c-0.3,0.1-0.5,0.1-0.6,0.2C216.6,27,216.5,27.1,216.5,27.4z"/>
		<path class="st1" d="M256.3,24.9l0.4,6.4h-1c-0.2-1.7-0.8-2.9-1.6-3.6c-0.8-0.7-2.1-1.1-3.9-1.1h-6.1v10h5.2
			c1.7,0,2.8-0.3,3.3-0.8c0.6-0.5,0.9-1.6,0.9-3.1h1V42h-1c-0.1-1.5-0.4-2.6-0.9-3.1c-0.6-0.5-1.7-0.7-3.3-0.7h-5.2v9.5
			c0,0.9,0.1,1.4,0.4,1.7c0.2,0.2,0.9,0.3,1.8,0.3h4.4c1.3,0,2.4-0.1,3.2-0.4c0.8-0.2,1.5-0.7,2.1-1.3c0.8-0.8,1.5-2,2.1-3.8l1,0.3
			l-2.1,6.8h-20.7v-1l0.4,0c1.3,0,2.3-0.4,2.7-1c0.5-0.6,0.7-1.8,0.7-3.5V30.5c0-1.3-0.1-2.2-0.2-2.7c-0.2-0.5-0.5-0.9-1-1.3
			c-0.5-0.4-1.3-0.6-2.3-0.6l-0.4,0v-1H256.3z"/>
		<path class="st1" d="M277,24.2l-0.1,8.7h-1c-0.1-1.5-0.4-2.8-1-3.8c-0.5-0.9-1.2-1.5-2-2c-0.8-0.5-1.7-0.7-2.7-0.7
			c-1.3,0-2.3,0.4-3.1,1.1c-0.8,0.8-1.3,1.7-1.3,2.9c0,1.1,0.4,2,1.3,2.8c0.6,0.6,1.9,1.4,3.9,2.6c2.8,1.6,4.6,2.9,5.5,3.8
			c0.6,0.6,1,1.3,1.4,2.2c0.3,0.9,0.5,1.8,0.5,2.7c0,2.3-0.9,4.2-2.8,5.7c-1.5,1.1-3.2,1.7-5.3,1.7c-1.2,0-2.9-0.3-5-1
			c-0.6-0.2-1-0.3-1.3-0.3c-0.7,0-1.2,0.4-1.4,1.2h-1l0.1-8.6h1c0.1,1.4,0.3,2.7,0.9,3.6c0.5,1,1.3,1.8,2.4,2.4
			c1,0.6,2.2,0.9,3.4,0.9c1.5,0,2.8-0.4,3.7-1.3c0.9-0.9,1.4-1.9,1.4-3.2c0-1.3-0.5-2.5-1.6-3.4c-0.3-0.3-1.7-1.2-4-2.6
			c-1.9-1.2-3.2-2-3.7-2.4c-0.5-0.4-1-0.8-1.5-1.4c-1-1.2-1.5-2.5-1.5-4c0-2.2,0.9-4,2.6-5.4c1.3-1.1,2.9-1.6,4.8-1.6
			c0.6,0,1.1,0,1.6,0.1c0.4,0.1,1.3,0.3,2.6,0.7c0.4,0.1,0.7,0.2,1,0.2c0.7,0,1.1-0.4,1.2-1.2H277z"/>
		<path class="st1" d="M300.7,24.9l0.4,6.4h-1c-0.2-1.7-0.8-2.9-1.6-3.6c-0.8-0.7-2.1-1.1-3.9-1.1h-6.1v10h5.2
			c1.7,0,2.8-0.3,3.3-0.8c0.6-0.5,0.9-1.6,0.9-3.1h1V42h-1c-0.1-1.5-0.4-2.6-0.9-3.1s-1.7-0.7-3.3-0.7h-5.2v9.5
			c0,0.9,0.1,1.4,0.4,1.7c0.2,0.2,0.9,0.3,1.8,0.3h4.4c1.3,0,2.4-0.1,3.2-0.4c0.8-0.2,1.5-0.7,2.1-1.3c0.8-0.8,1.5-2,2.1-3.8l1,0.3
			l-2.1,6.8h-20.7v-1l0.4,0c1.3,0,2.3-0.4,2.7-1c0.5-0.6,0.7-1.8,0.7-3.5V30.5c0-1.3-0.1-2.2-0.2-2.7c-0.2-0.5-0.5-0.9-1-1.3
			c-0.5-0.4-1.3-0.6-2.3-0.6l-0.4,0v-1H300.7z"/>
		<path class="st1" d="M316.9,24.1l9.6,22.6c0.6,1.5,1.2,2.4,1.8,2.9c0.6,0.5,1.4,0.7,2.5,0.8v1h-10.9v-1l0.3,0c1,0,1.7-0.2,2-0.3
			c0.3-0.2,0.5-0.6,0.5-1.1c0-0.3-0.1-0.8-0.4-1.5l-1.9-4.6H311l-1.7,4.1c-0.4,1-0.6,1.7-0.6,2.1c0,0.8,0.5,1.3,1.5,1.3
			c0.8,0.1,1.2,0.1,1.4,0.1v1h-8.8v-1c1.3,0,2.2-0.3,2.9-0.9c0.7-0.6,1.3-1.6,2-3.1L316.9,24.1z M315.8,31.4l-4.1,9.9h8.2
			L315.8,31.4z"/>
		<path class="st1" d="M346.4,38.4l5.8,8c0.7,0.9,1.2,1.6,1.7,2.1c0.5,0.5,1,0.9,1.5,1.2c0.4,0.2,0.8,0.4,1.1,0.5
			c0.3,0.1,0.9,0.1,1.9,0.2v1H351l-9-12.2c-0.5,0-1,0-1.2,0c-0.3,0-0.7,0-1.2,0v6.6c0,1.3,0.1,2.2,0.2,2.7s0.5,0.9,1,1.3
			c0.5,0.4,1.3,0.6,2.3,0.6l0.4,0v1h-11.6v-1l0.4,0c1.3,0,2.3-0.4,2.7-1c0.5-0.6,0.7-1.8,0.7-3.5V30.5c0-1.3-0.1-2.2-0.2-2.7
			s-0.5-0.9-1-1.3c-0.5-0.4-1.3-0.6-2.3-0.6l-0.4,0v-1h10.9c2.3,0,4.1,0.3,5.5,0.8c1.2,0.5,2.2,1.3,2.9,2.3s1.1,2.3,1.1,3.7
			c0,1.6-0.5,3-1.5,4.2C349.7,37.1,348.3,37.9,346.4,38.4z M339.7,27.4v9.8c0,0.2,0.1,0.4,0.3,0.4c0.2,0.1,0.6,0.1,1.2,0.1
			c1.8,0,3.3-0.4,4.5-1.3c1.4-1,2.2-2.5,2.2-4.4c0-1.7-0.5-3.1-1.5-4.1c-0.9-1-2.2-1.5-3.8-1.5c-0.7,0-1.4,0.1-2.1,0.3
			c-0.3,0.1-0.5,0.1-0.6,0.2C339.7,27,339.7,27.1,339.7,27.4z"/>
		<path class="st1" d="M378.5,24.6l-0.1,8.7h-1c-0.1-1.3-0.2-2.7-0.9-3.9c-1.4-2.2-3.4-3.3-6.1-3.3c-2.6,0-4.7,1.1-6.4,3.2
			c-1.8,2.2-2.6,5.1-2.6,8.6c0,1.9,0.3,3.6,0.8,5.2s1.2,2.9,2.1,3.9c1.7,1.8,3.7,2.7,6.2,2.7c3.6,0,6.3-1.8,8.1-5.3l1.1,0.7
			c-0.8,1.7-1.9,3-3.1,4.1c-2,1.7-4.5,2.6-7.3,2.6c-2.6,0-5-0.8-7.1-2.3c-1.7-1.2-3-2.8-4-4.7c-0.9-1.9-1.4-4-1.4-6.2
			c0-1.7,0.3-3.4,0.8-5c0.5-1.6,1.2-3,2.1-4.2c1.3-1.7,3-2.9,5.1-3.8c1.5-0.6,3-1,4.6-1c1.7,0,3.6,0.4,5.6,1.2
			c0.6,0.3,1,0.4,1.3,0.4c0.3,0,0.6-0.1,0.8-0.3c0.2-0.2,0.3-0.6,0.4-1.2H378.5z"/>
		<path class="st1" d="M388.6,37.1h11.9v-6.7c0-1.3-0.1-2.2-0.2-2.7s-0.5-0.9-1-1.3c-0.5-0.4-1.3-0.6-2.3-0.6l-0.4,0v-1h11.6v1
			l-0.4,0c-1.3,0-2.3,0.4-2.7,1c-0.5,0.6-0.7,1.8-0.7,3.5v15.3c0,1.3,0.1,2.2,0.2,2.7s0.5,0.9,1,1.3c0.5,0.4,1.3,0.6,2.3,0.6l0.4,0
			v1h-11.6v-1l0.4,0c1.4,0,2.3-0.4,2.7-1c0.5-0.6,0.7-1.8,0.7-3.5v-7.2h-11.9v7.2c0,1.3,0.1,2.2,0.2,2.7s0.5,0.9,1,1.3
			c0.5,0.4,1.3,0.6,2.3,0.6l0.4,0v1h-11.6v-1l0.4,0c1.3,0,2.3-0.4,2.7-1c0.5-0.6,0.7-1.8,0.7-3.5V30.5c0-1.3-0.1-2.2-0.2-2.7
			s-0.5-0.9-1-1.3c-0.5-0.4-1.3-0.6-2.3-0.6l-0.4,0v-1h11.6v1l-0.4,0c-1.3,0-2.3,0.4-2.7,1c-0.5,0.6-0.7,1.8-0.7,3.5V37.1z"/>
	</g>
	<polygon class="st2" points="0,0 433.7,0 433.7,93.6 0,93.6 0,0 	"/>
</g>
</svg>
